#!OML:ASF F:\VICON\USERDATA\INSTALL\rory3\rory3.ASF
:FULLY-SPECIFIED
:DEGREES
999
root 1.93932 18.9013 -4.29305 -3.24749 -10.6824 1.66267
lowerback 5.85367 1.26888 -3.28272
upperback 0.622546 1.4512 -0.848994
thorax -2.69965 0.753012 0.848916
lowerneck -7.50642 -2.37859 -6.23104
upperneck 24.1677 -4.25821 7.97933
head 9.07351 -1.78278 3.37072
rclavicle -3.69926e-015 -1.98785e-015
rhumerus -32.2309 40.1161 -97.5897
rradius 91.5538
rwrist -6.06329
rhand -43.8246 11.3377
rfingers 7.12502
rthumb -16.6523 -17.968
lclavicle -3.69926e-015 -1.98785e-015
lhumerus -31.5532 -36.7315 98.7133
lradius 103.088
lwrist 6.25785
lhand -18.7826 22.992
lfingers 7.12502
lthumb 7.51497 52.8385
rfemur 5.07343 19.8583 16.9076
rtibia 11.1155
rfoot -12.1972 -20.6016
rtoes -7.24561
lfemur 0 0 0
ltibia 0
lfoot 0 0
ltoes 0
1000
root 1.9403 18.9014 -4.29541 -3.2612 -10.6442 1.60906
lowerback 5.91282 1.25213 -3.21888
upperback 0.61579 1.43078 -0.835303
thorax -2.73769 0.742761 0.827616
lowerneck -7.43413 -2.36909 -6.27777
upperneck 24.0523 -4.25241 8.06076
head 9.02165 -1.77855 3.40593
rclavicle 9.10372e-015 4.57205e-015
rhumerus -32.2211 40.0956 -97.6059
rradius 91.5846
rwrist -6.13046
rhand -43.9298 11.4803
rfingers 7.12502
rthumb -16.7536 -17.8168
lclavicle 9.10372e-015 4.57205e-015
lhumerus -31.4832 -36.5911 98.6741
lradius 103.144
lwrist 6.2775
lhand -18.2039 22.8984
lfingers 7.12502
lthumb 8.07359 52.7241
rfemur 5.10983 19.8256 16.9768
rtibia 11.0707
rfoot -12.1015 -20.6377
rtoes -7.32253
lfemur 0 0 0
ltibia 0
lfoot 0 0
ltoes 0
1001
root 1.94162 18.9017 -4.29649 -3.27488 -10.641 1.54909
lowerback 5.94679 1.24993 -3.14027
upperback 0.60214 1.43167 -0.822595
thorax -2.76921 0.742922 0.795705
lowerneck -7.36666 -2.3764 -6.28862
upperneck 23.9827 -4.27071 8.10623
head 8.98735 -1.78565 3.42078
rclavicle -2.04997e-016 1.39149e-015
rhumerus -32.2585 40.0275 -97.6392
rradius 91.6433
rwrist -6.30106
rhand -44.0523 11.9053
rfingers 7.12502
rthumb -16.8716 -17.3818
lclavicle -2.04997e-016 1.39149e-015
lhumerus -31.423 -36.4326 98.6175
lradius 103.254
lwrist 6.45316
lhand -17.3628 22.8643
lfingers 7.12502
lthumb 8.8853 52.6572
rfemur 5.15207 19.8411 17.0532
rtibia 11.0213
rfoot -12.0433 -20.6767
rtoes -7.40051
lfemur 0 0 0
ltibia 0
lfoot 0 0
ltoes 0
1002
root 1.94248 18.9016 -4.29548 -3.29749 -10.6453 1.56026
lowerback 5.94298 1.25054 -3.13819
upperback 0.604057 1.43261 -0.829623
thorax -2.7649 0.743263 0.787328
lowerneck -7.3652 -2.38585 -6.27427
upperneck 23.9474 -4.28999 8.12984
head 8.97657 -1.79139 3.42382
rclavicle -1.58127e-014 9.93923e-015
rhumerus -32.2557 40.0007 -97.6585
rradius 91.7056
rwrist -6.4632
rhand -44.135 12.2128
rfingers 7.12502
rthumb -16.9512 -17.0675
lclavicle -1.58127e-014 9.93923e-015
lhumerus -31.3425 -36.2291 98.5181
lradius 103.329
lwrist 6.60754
lhand -16.4781 22.4535
lfingers 7.12502
lthumb 9.73891 52.2083
rfemur 5.21205 19.8691 17.0478
rtibia 10.9749
rfoot -12.4603 -20.671
rtoes -6.28196
lfemur 0 0 0
ltibia 0
lfoot 0 0
ltoes 0
1003
root 1.94293 18.9019 -4.295 -3.31018 -10.6281 1.57581
lowerback 5.94456 1.24282 -3.15215
upperback 0.602537 1.42115 -0.834858
thorax -2.76713 0.737727 0.790668
lowerneck -7.33793 -2.39059 -6.28708
upperneck 23.9039 -4.30262 8.16943
head 8.95843 -1.79554 3.43781
rclavicle -2.68359e-014 5.1684e-015
rhumerus -32.2109 40.0162 -97.6601
rradius 91.7323
rwrist -6.55491
rhand -44.164 12.3836
rfingers 7.12502
rthumb -16.9791 -16.8943
lclavicle -2.68359e-014 5.1684e-015
lhumerus -31.2527 -36.0709 98.4152
lradius 103.375
lwrist 6.70063
lhand -15.743 21.9753
lfingers 7.12502
lthumb 10.4481 51.6957
rfemur 5.24489 19.8676 17.0322
rtibia 10.9699
rfoot -13.6723 -20.6773
rtoes -2.95514
lfemur 0 0 0
ltibia 0
lfoot 0 0
ltoes 0
1004
root 1.9428 18.9017 -4.29512 -3.33222 -10.622 1.56236
lowerback 5.96504 1.23739 -3.14799
upperback 0.609779 1.41354 -0.833278
thorax -2.77077 0.733865 0.790275
lowerneck -7.38643 -2.39941 -6.27025
upperneck 23.9567 -4.31975 8.17117
head 8.98702 -1.80051 3.43451
rclavicle 1.93504e-014 4.37326e-015
rhumerus -32.1297 40.0406 -97.6497
rradius 91.7428
rwrist -6.61727
rhand -44.0173 12.4205
rfingers 7.12502
rthumb -16.8379 -16.8695
lclavicle 1.93504e-014 4.37326e-015
lhumerus -31.1617 -35.9627 98.302
lradius 103.431
lwrist 6.82403
lhand -15.0635 21.6389
lfingers 7.12502
lthumb 11.1035 51.3252
rfemur 5.24767 19.8805 17.0611
rtibia 11.0129
rfoot -12.4901 -20.7803
rtoes -6.18327
lfemur 0 0 0
ltibia 0
lfoot 0 0
ltoes 0
